<?xml version="1.0" encoding="UTF-8" standalone="no"?>
<svg
   xmlns:dc="http://purl.org/dc/elements/1.1/"
   xmlns:cc="http://creativecommons.org/ns#"
   xmlns:rdf="http://www.w3.org/1999/02/22-rdf-syntax-ns#"
   xmlns:svg="http://www.w3.org/2000/svg"
   xmlns="http://www.w3.org/2000/svg"
   id="svg1034"
   version="1.1"
   viewBox="0 0 11.493059 11.209467"
   height="11.209467mm"
   width="11.493059mm">
  <defs
     id="defs1028" />
  <metadata
     id="metadata1031">
    <rdf:RDF>
      <cc:Work
         rdf:about="">
        <dc:format>image/svg+xml</dc:format>
        <dc:type
           rdf:resource="http://purl.org/dc/dcmitype/StillImage" />
        <dc:title></dc:title>
      </cc:Work>
    </rdf:RDF>
  </metadata>
  <g
     transform="translate(-14.155682,-17.261258)"
     id="layer1">
    <path
       d="m 19.901726,17.261258 c -3.172883,0 -5.746044,2.572808 -5.746044,5.746749 0,2.538589 1.646414,4.692651 3.929944,5.452887 0.287514,0.05256 0.392289,-0.124884 0.392289,-0.277284 0,-0.136525 -0.0049,-0.497769 -0.0078,-0.977194 -1.598436,0.347133 -1.935692,-0.770467 -1.935692,-0.770467 -0.261408,-0.663928 -0.638174,-0.840669 -0.638174,-0.840669 -0.521759,-0.356306 0.03951,-0.34925 0.03951,-0.34925 0.576791,0.04057 0.88018,0.592314 0.88018,0.592314 0.512586,0.878063 1.345142,0.624416 1.67252,0.477308 0.05221,-0.371122 0.20073,-0.624417 0.364772,-0.767997 -1.275997,-0.145345 -2.617611,-0.638175 -2.617611,-2.840214 0,-0.627592 0.224014,-1.140178 0.591608,-1.541992 -0.05927,-0.145344 -0.256469,-0.729544 0.05644,-1.520825 0,0 0.482248,-0.154517 1.580092,0.588786 0.458258,-0.127352 0.950031,-0.190852 1.438628,-0.193322 0.488244,0.0025 0.979664,0.06597 1.438628,0.193322 1.097138,-0.743303 1.57868,-0.588786 1.57868,-0.588786 0.313619,0.791281 0.116417,1.375481 0.0575,1.520825 0.3683,0.401814 0.59055,0.9144 0.59055,1.541992 0,2.207683 -1.343731,2.693458 -2.623608,2.835628 0.206022,0.177447 0.389819,0.528108 0.389819,1.06433 0,0.767998 -0.0071,1.387828 -0.0071,1.576211 0,0.153812 0.103717,0.33267 0.395111,0.276578 2.28177,-0.761647 3.926773,-2.913944 3.926773,-5.452181 0,-3.173941 -2.573161,-5.746749 -5.747103,-5.746749"
       style="fill:#1b1817;fill-opacity:1;fill-rule:evenodd;stroke:none;stroke-width:0.0352777"
       id="path16" />
  </g>
</svg>
